<?xml version="1.0" encoding="utf-8"?>

<!-- The icon can be used freely in both personal and commercial projects with no attribution required, but always appreciated. 
You may NOT sub-license, resell, rent, redistribute or otherwise transfer the icon without express written permission from iconmonstr.com -->

<!DOCTYPE svg PUBLIC "-//W3C//DTD SVG 1.1//EN" "http://www.w3.org/Graphics/SVG/1.1/DTD/svg11.dtd">
<svg version="1.1" xmlns="http://www.w3.org/2000/svg" xmlns:xlink="http://www.w3.org/1999/xlink" x="0px" y="0px"
	 width="512px" height="512px" viewBox="0 0 512 512" enable-background="new 0 0 512 512" xml:space="preserve">
<path id="sound-wave-3-icon" d="M423.436,253.5c-11.25,0-16.857-21.833-20.859-34.878c-5.379-17.535-11.805-41.455-30.141-41.455
	c-31.549,0-25.996,89.323-42.756,130.036c-0.824,2.007-3.686,1.965-4.457-0.06c-15.438-40.575-13.779-129.977-45.287-129.977
	c-32.223,0-30.102,84.645-45.416,128.466c-0.744,2.127-3.758,2.136-4.52,0.02c-15.15-42.056-13.406-128.485-45.064-128.485
	c-33.836,0-29.883,90.229-45.189,129.569c-0.795,2.039-3.693,2.031-4.475-0.016C125.324,280.646,121.604,234,91.936,234h-41.93v21
	h32.93c9.369,0,12.508,1.812,15.871,8.672c12.705,25.921,14.357,71.161,38.129,71.161c34.176,0,30.939-88.388,45.385-128.832
	c0.754-2.117,3.768-2.115,4.518,0.009c15.326,43.351,13.225,128.823,45.598,128.823c31.514,0,30.049-85.439,44.924-127.933
	c0.758-2.16,3.816-2.124,4.537,0.028c14.928,44.47,13.307,127.904,44.955,127.904c33.947,0,31.734-85.284,44.805-128.581
	c0.652-2.16,3.668-2.296,4.516-0.21c10.014,24.59,15.059,68.458,44.264,68.458c19.617,0,41.342-0.005,41.559,0v-21
	C461.773,253.495,423.436,253.5,423.436,253.5z"/>
</svg>
