<?xml version="1.0" encoding="utf-8"?>
<!-- Generator: Adobe Illustrator 16.0.0, SVG Export Plug-In . SVG Version: 6.00 Build 0)  -->
<!DOCTYPE svg PUBLIC "-//W3C//DTD SVG 1.1//EN" "http://www.w3.org/Graphics/SVG/1.1/DTD/svg11.dtd">
<svg version="1.1" id="Ebene_1" xmlns="http://www.w3.org/2000/svg" xmlns:xlink="http://www.w3.org/1999/xlink" x="0px" y="0px"
	 width="32px" height="32px" viewBox="0 0 32 32" enable-background="new 0 0 32 32" xml:space="preserve">
<path d="M2.454,30.998c-1.155,0-2.088-0.934-2.089-2.087l0,0V7.189c0-1.155,0.934-2.088,2.089-2.088l0,0h11.2l-2.985,2.983H3.35
	v19.932l19.054,0.001v-4.009l2.983-2.983v7.887c-0.002,1.153-0.935,2.087-2.089,2.089l0,0L2.454,30.998L2.454,30.998z"/>
<path d="M22.304,4.838V1.09L32,10.788l-9.738,9.739v-3.895c0,0-5.712-0.396-9.808,2.141c-2.722,1.685-4.345,3.369-5.691,5.651
	c0,0,0.368-6.052,3.848-11.563C14.964,5.97,22.304,4.838,22.304,4.838z"/>
</svg>
