<?xml version="1.0" encoding="utf-8"?>
<!-- Generator: Adobe Illustrator 16.0.0, SVG Export Plug-In . SVG Version: 6.00 Build 0)  -->
<!DOCTYPE svg PUBLIC "-//W3C//DTD SVG 1.1//EN" "http://www.w3.org/Graphics/SVG/1.1/DTD/svg11.dtd">
<svg version="1.1" id="Ebene_1" xmlns="http://www.w3.org/2000/svg" xmlns:xlink="http://www.w3.org/1999/xlink" x="0px" y="0px"
	 width="32px" height="32px" viewBox="0 0 32 32" enable-background="new 0 0 32 32" xml:space="preserve">
<path id="Logo" fill-rule="evenodd" clip-rule="evenodd" d="M28.491,27.041H3.508c-1.29,0-2.335-1.046-2.335-2.337V7.297
	c0-1.29,1.046-2.337,2.335-2.337h24.983c1.29,0,2.336,1.047,2.336,2.337v17.407C30.827,25.995,29.781,27.041,28.491,27.041z
	 M9.237,8.254H7.511v2.718H5.238V8.254H3.512v7.463h1.726v-3.072h2.273v3.072h1.726V8.254z M11.77,13.773h-1.726v1.943h1.726V13.773
	z M17.485,14.212h-3.072c0.427-0.46,0.668-0.648,1.169-0.982c0.945-0.669,1.837-1.171,1.837-2.582c0-1.558-1.142-2.311-2.421-2.311
	c-1.605,0-2.645,1.224-2.543,3.031h1.476c0-0.794,0.241-1.474,1.076-1.474c0.511,0,0.835,0.335,0.835,0.909
	c0,0.492-0.353,0.847-0.844,1.213c-0.511,0.366-1.132,0.732-1.689,1.275c-0.64,0.627-1.002,1.495-1.012,2.425h5.188V14.212z
	 M20.648,9.644c0.139,0,0.306,0.021,0.454,0.115c0.148,0.115,0.26,0.272,0.325,0.564h1.476c-0.195-1.327-1.104-1.986-2.255-1.986
	c-1.958,0-2.83,1.735-2.83,3.784c0,1.871,0.677,3.69,2.579,3.69c1.41,0,2.589-0.962,2.589-2.687c0-1.328-0.909-2.404-2.097-2.404
	c-0.622,0-1.188,0.178-1.513,0.773h-0.019C19.387,10.668,19.748,9.644,20.648,9.644z M28.488,12.592h-0.845v-4.16h-1.513
	l-2.895,4.003v1.662h2.83v1.62h1.577v-1.62h0.845V12.592z M28.608,17.227H3.703v6.075h24.906V17.227z M5.906,20.896h0.007
	l0.467-2.934h1.039v4.399H6.755v-3.339H6.748l-0.569,3.339H5.641l-0.569-3.339H5.064v3.339H4.401v-4.399H5.44L5.906,20.896z
	 M10.02,19.38c0,1.091-0.383,1.517-0.978,1.517H8.461v1.466H7.756v-4.399h1.286C9.545,17.963,10.02,18.339,10.02,19.38z
	 M8.461,18.882v1.126h0.474c0.224,0,0.379-0.146,0.379-0.548c0-0.419-0.163-0.578-0.379-0.578H8.461z M12.358,18.882h-1.453v0.77
	h1.328v0.887h-1.328v0.839h1.491v0.985h-2.195v-4.399h2.157V18.882z M13.894,17.871c0.561,0,1.164,0.48,1.225,1.589h-0.706
	c-0.026-0.376-0.246-0.604-0.535-0.604c-0.455,0-0.629,0.647-0.629,1.307s0.175,1.307,0.629,1.307c0.35,0,0.581-0.266,0.622-0.666
	h-0.493v-0.851h1.137v2.409h-0.455l-0.042-0.48c-0.182,0.426-0.512,0.573-0.754,0.573c-0.823,0-1.35-1.017-1.35-2.292
	C12.544,18.887,13.071,17.871,13.894,17.871z M16.563,21.131h-1.179v-0.889h1.179V21.131z M18.511,18.068v2.452h0.346v0.887h-0.346
	v0.955h-0.645v-0.955H16.71v-0.979l1.183-2.359H18.511z M17.886,19.134h-0.008l-0.668,1.387h0.676V19.134z M20.406,17.871
	l-1.02,4.584h-0.592l1.02-4.584H20.406z M21.915,17.963l1.013,4.399h-0.736l-0.166-0.789h-0.944l-0.17,0.789h-0.725l1.012-4.399
	H21.915z M21.858,20.724l-0.3-1.541h-0.008l-0.307,1.541H21.858z M23.242,17.963l0.53,3.272h0.008l0.53-3.272h0.736l-0.877,4.399
	h-0.811l-0.853-4.399H23.242z M26.362,17.871c0.588,0,1.217,0.604,1.235,1.663h-0.705c-0.042-0.444-0.246-0.678-0.546-0.678
	c-0.455,0-0.629,0.647-0.629,1.307s0.174,1.307,0.629,1.307c0.334,0,0.52-0.303,0.546-0.814h0.705c-0.042,1.141-0.55,1.8-1.235,1.8
	c-0.823,0-1.351-1.017-1.351-2.292C25.012,18.887,25.539,17.871,26.362,17.871z M26.094,10.239h0.019v2.353h-1.651L26.094,10.239z
	 M20.407,12.027c0.714,0,1.104,0.543,1.104,1.223c0,0.596-0.438,1.118-1.096,1.118c-0.621,0-1.021-0.501-1.021-1.129
	C19.396,12.57,19.813,12.027,20.407,12.027z"/>
</svg>
