<?xml version="1.0" encoding="utf-8"?>
<!-- Generator: Adobe Illustrator 16.0.0, SVG Export Plug-In . SVG Version: 6.00 Build 0)  -->
<!DOCTYPE svg PUBLIC "-//W3C//DTD SVG 1.1//EN" "http://www.w3.org/Graphics/SVG/1.1/DTD/svg11.dtd">
<svg version="1.1" id="Ebene_1" xmlns="http://www.w3.org/2000/svg" xmlns:xlink="http://www.w3.org/1999/xlink" x="0px" y="0px"
	 width="32px" height="32px" viewBox="0 0 32 32" enable-background="new 0 0 32 32" xml:space="preserve">
<g id="layer1">
	<polygon id="polygon4099" fill="#6C6C6A" points="21.832,15.641 22.06,15.641 19.207,14.211 19.314,14.369 	"/>
	<polygon id="polygon4101" fill="#6C6C6A" points="21.832,15.641 21.834,15.641 19.314,16.82 19.207,16.977 22.06,15.641 	"/>
	<polygon id="polygon4103" fill="#6C6C6A" points="19.313,16.82 19.313,14.369 19.314,14.369 19.207,14.211 19.207,16.977 
		19.314,16.82 	"/>
	<polygon id="polygon4105" fill="#484947" points="19.313,14.369 19.313,16.82 19.314,16.82 21.834,15.641 21.832,15.641 
		19.314,14.369 	"/>
	<path id="path4109" fill="#313131" d="M4.266,14.302l0.68,2.331l0.619-2.167c0.066-0.228,0.115-0.382,0.147-0.464
		c0.032-0.083,0.092-0.162,0.18-0.237c0.088-0.075,0.208-0.113,0.361-0.113c0.155,0,0.277,0.038,0.364,0.113
		c0.088,0.075,0.149,0.157,0.185,0.244c0.036,0.089,0.085,0.241,0.149,0.457l0.619,2.167l0.688-2.331
		c0.046-0.168,0.083-0.29,0.111-0.365c0.028-0.076,0.075-0.142,0.141-0.2s0.161-0.086,0.287-0.086c0.125,0,0.233,0.044,0.325,0.13
		c0.092,0.087,0.138,0.19,0.138,0.306c0,0.107-0.039,0.269-0.118,0.484l-0.852,2.497c-0.074,0.213-0.131,0.365-0.172,0.461
		c-0.041,0.094-0.104,0.178-0.192,0.25c-0.088,0.074-0.208,0.111-0.361,0.111c-0.158,0-0.282-0.039-0.372-0.119
		c-0.091-0.078-0.157-0.174-0.2-0.289c-0.044-0.115-0.091-0.264-0.142-0.447l-0.595-2.032l-0.577,2.032
		c-0.076,0.283-0.159,0.496-0.249,0.641c-0.088,0.143-0.246,0.215-0.469,0.215c-0.115,0-0.212-0.021-0.292-0.066
		c-0.081-0.045-0.147-0.109-0.201-0.191s-0.1-0.18-0.141-0.293c-0.041-0.115-0.073-0.203-0.095-0.271l-0.846-2.496
		c-0.083-0.235-0.125-0.396-0.125-0.485c0-0.112,0.044-0.212,0.134-0.302c0.089-0.089,0.199-0.134,0.329-0.134
		c0.173,0,0.29,0.05,0.351,0.147C4.133,13.896,4.198,14.065,4.266,14.302z"/>
	<path id="path4111" fill="#313131" d="M12.783,16.028h-2.04c0.002,0.237,0.05,0.445,0.144,0.626c0.092,0.18,0.216,0.316,0.37,0.408
		c0.154,0.092,0.324,0.137,0.51,0.137c0.125,0,0.239-0.014,0.342-0.043c0.104-0.029,0.203-0.074,0.3-0.137s0.186-0.131,0.267-0.201
		c0.082-0.072,0.187-0.168,0.317-0.291c0.053-0.046,0.129-0.068,0.229-0.068c0.107,0,0.193,0.029,0.26,0.088
		s0.099,0.143,0.099,0.248c0,0.094-0.037,0.205-0.111,0.33c-0.073,0.127-0.185,0.248-0.333,0.363
		c-0.149,0.117-0.336,0.211-0.562,0.287s-0.485,0.115-0.777,0.115c-0.669,0-1.19-0.191-1.562-0.572
		c-0.372-0.383-0.557-0.9-0.557-1.555c0-0.308,0.045-0.594,0.137-0.857c0.092-0.265,0.226-0.49,0.401-0.679
		c0.176-0.188,0.392-0.333,0.648-0.433c0.257-0.1,0.542-0.151,0.855-0.151c0.407,0,0.757,0.086,1.049,0.258
		c0.292,0.171,0.51,0.393,0.655,0.666c0.146,0.273,0.218,0.55,0.218,0.833c0,0.262-0.074,0.431-0.225,0.509
		C13.266,15.989,13.055,16.028,12.783,16.028z M10.743,15.436h1.891c-0.026-0.356-0.122-0.623-0.289-0.799
		c-0.167-0.178-0.386-0.267-0.659-0.267c-0.259,0-0.473,0.09-0.64,0.27C10.88,14.819,10.778,15.083,10.743,15.436z"/>
	<path id="path4113" fill="#313131" d="M15.379,12.698v1.592c0.196-0.203,0.396-0.359,0.6-0.466
		c0.203-0.108,0.456-0.164,0.757-0.164c0.346,0,0.648,0.083,0.908,0.246c0.262,0.165,0.465,0.403,0.609,0.715
		c0.146,0.313,0.216,0.682,0.216,1.109c0,0.316-0.041,0.606-0.121,0.868c-0.079,0.264-0.196,0.494-0.351,0.686
		c-0.152,0.195-0.336,0.344-0.554,0.449s-0.458,0.158-0.722,0.158c-0.158,0-0.311-0.018-0.451-0.057
		c-0.141-0.037-0.262-0.09-0.361-0.15c-0.099-0.063-0.185-0.127-0.255-0.193c-0.069-0.066-0.162-0.166-0.277-0.299v0.104
		c0,0.195-0.046,0.344-0.141,0.445c-0.094,0.1-0.214,0.15-0.359,0.15c-0.147,0-0.265-0.051-0.353-0.15
		c-0.088-0.102-0.131-0.25-0.131-0.445v-4.552c0-0.211,0.042-0.371,0.127-0.479c0.085-0.108,0.204-0.162,0.357-0.162
		c0.161,0,0.284,0.051,0.371,0.154C15.336,12.359,15.379,12.506,15.379,12.698z M15.428,15.794c0,0.415,0.095,0.733,0.285,0.958
		c0.19,0.223,0.438,0.332,0.747,0.332c0.262,0,0.489-0.111,0.679-0.34s0.285-0.555,0.285-0.98c0-0.275-0.04-0.512-0.121-0.711
		c-0.078-0.199-0.19-0.352-0.335-0.461c-0.146-0.108-0.315-0.162-0.508-0.162c-0.199,0-0.375,0.054-0.532,0.162
		c-0.155,0.108-0.277,0.266-0.366,0.47S15.428,15.512,15.428,15.794z"/>
	<path id="path4117" fill="#313131" d="M26.305,15.848v1.386c0,0.219-0.051,0.385-0.149,0.494c-0.099,0.107-0.23,0.164-0.394,0.164
		c-0.157,0-0.285-0.057-0.384-0.164c-0.098-0.109-0.147-0.275-0.147-0.494v-1.66c0-0.263-0.009-0.466-0.026-0.612
		c-0.019-0.145-0.065-0.264-0.146-0.356c-0.078-0.092-0.203-0.139-0.374-0.139c-0.342,0-0.565,0.118-0.675,0.351
		c-0.107,0.235-0.163,0.57-0.163,1.009v1.409c0,0.217-0.049,0.381-0.145,0.492c-0.1,0.109-0.229,0.166-0.39,0.166
		c-0.158,0-0.287-0.057-0.389-0.166c-0.101-0.111-0.151-0.275-0.151-0.492v-2.982c0-0.197,0.046-0.346,0.137-0.447
		c0.091-0.103,0.209-0.153,0.357-0.153c0.143,0,0.26,0.048,0.355,0.143c0.096,0.096,0.143,0.228,0.143,0.396v0.099
		c0.182-0.216,0.375-0.375,0.58-0.478c0.206-0.101,0.437-0.152,0.688-0.152c0.262,0,0.487,0.053,0.676,0.157
		c0.189,0.104,0.345,0.263,0.467,0.473c0.175-0.213,0.363-0.372,0.564-0.475c0.202-0.103,0.426-0.155,0.669-0.155
		c0.284,0,0.531,0.056,0.736,0.167c0.207,0.112,0.36,0.273,0.463,0.481c0.09,0.189,0.134,0.485,0.134,0.89v2.036
		c0,0.219-0.049,0.385-0.149,0.494c-0.099,0.107-0.23,0.164-0.393,0.164c-0.158,0-0.287-0.057-0.389-0.166
		c-0.101-0.111-0.15-0.275-0.15-0.492v-1.752c0-0.225-0.01-0.404-0.028-0.539c-0.019-0.135-0.071-0.248-0.154-0.34
		c-0.085-0.092-0.213-0.137-0.383-0.137c-0.137,0-0.269,0.041-0.392,0.122c-0.124,0.082-0.219,0.192-0.288,0.329
		C26.343,15.091,26.305,15.403,26.305,15.848z"/>
</g>
</svg>
