<?xml version="1.0" encoding="utf-8"?>
<!-- Generator: Adobe Illustrator 16.0.2, SVG Export Plug-In . SVG Version: 6.00 Build 0)  -->
<!DOCTYPE svg PUBLIC "-//W3C//DTD SVG 1.1//EN" "http://www.w3.org/Graphics/SVG/1.1/DTD/svg11.dtd">
<svg version="1.1" xmlns="http://www.w3.org/2000/svg" xmlns:xlink="http://www.w3.org/1999/xlink" x="0px" y="0px" width="32px"
	 height="32px" viewBox="0 0 32 32" enable-background="new 0 0 32 32" xml:space="preserve">
<g id="Ebene_1" display="none">
	<path id="fullscreen-5-icon" display="inline" fill="#010202" d="M0.383,4.935v24.149h31.232V4.935H0.383z M10.088,25.854H3.616
		v-6.472l1.588,1.583l2.592-2.591l3.3,3.3l-2.592,2.592L10.088,25.854z M7.796,15.646l-2.592-2.592l-1.588,1.584V8.165h6.473
		L8.503,9.753l2.592,2.592L7.796,15.646z M28.388,25.854h-6.472l1.585-1.588l-2.54-2.539l3.302-3.301l2.537,2.539l1.588-1.583
		V25.854L28.388,25.854z M28.388,14.638L26.8,13.053l-2.537,2.539l-3.302-3.299l2.54-2.54l-1.585-1.587h6.472V14.638L28.388,14.638z
		"/>
</g>
<g id="Ebene_2">
	<path fill="#020303" d="M26.59,18.139v-3.277l-3.936-1.64c-0.105-0.311-0.221-0.606-0.359-0.901l1.557-3.934l-2.459-2.459
		l-3.936,1.639c-0.295-0.147-0.597-0.263-0.9-0.376l-1.64-3.853h-3.278L10,7.19C9.672,7.304,9.361,7.427,9.016,7.575L5.083,6.018
		L2.623,8.313l1.558,3.853c-0.083,0-0.247,0.819-0.328,0.819L0,14.624v3.279l3.853,1.639c0.114,0.336,0.245,0.656,0.401,0.984
		l-1.557,3.852l2.294,2.295l3.852-1.558c0.312,0.148,0.631,0.263,0.983,0.377l1.639,4.101h3.28l1.639-3.936
		c0.312-0.116,0.615-0.238,0.903-0.377l3.934,1.556l2.295-2.293l-1.641-3.934c0.141-0.297,0.246-0.593,0.361-0.904l4.098-1.639
		L26.59,18.139z M13.475,21.419c-2.705,0-4.918-2.214-4.918-4.918c0-2.705,2.213-4.918,4.918-4.918c2.705,0,4.918,2.213,4.918,4.918
		C18.393,19.205,15.933,21.419,13.475,21.419z"/>
</g>
<g id="Ebene_3" display="none">
	<path display="inline" fill="#010202" d="M5.872,29.153c-1.064,0-1.923-0.859-1.924-1.921l0,0V7.226
		c0-1.064,0.86-1.923,1.924-1.923l0,0h10.314L13.438,8.05H6.697v18.357l17.549,0.001v-3.692l2.746-2.747v7.264
		c-0.001,1.062-0.861,1.923-1.924,1.925l0,0L5.872,29.153L5.872,29.153z"/>
	<path display="inline" fill="#010202" d="M22.512,7.13V4.074l7.905,7.907l-7.94,7.941v-3.177c0,0-4.657-0.323-7.996,1.745
		c-2.22,1.375-3.543,2.747-4.64,4.607c0,0,0.3-4.933,3.137-9.427C16.526,8.054,22.512,7.13,22.512,7.13z"/>
</g>
</svg>
