<?xml version="1.0" encoding="utf-8"?>
<!-- Generator: Adobe Illustrator 16.0.0, SVG Export Plug-In . SVG Version: 6.00 Build 0)  -->
<!DOCTYPE svg PUBLIC "-//W3C//DTD SVG 1.1//EN" "http://www.w3.org/Graphics/SVG/1.1/DTD/svg11.dtd">
<svg version="1.1" id="Ebene_1" xmlns="http://www.w3.org/2000/svg" xmlns:xlink="http://www.w3.org/1999/xlink" x="0px" y="0px"
	 width="32px" height="32px" viewBox="0 0 32 32" enable-background="new 0 0 32 32" xml:space="preserve">
<g id="layer1_1_">
	<g id="g7462" transform="translate(10, 8)">
		<path id="path3083" fill="#C7C6C6" d="M-6.91,8.269H6.36V-5.24L-6.91,8.269z"/>
		<path id="path3085" fill="#989899" d="M6.357,21.24L-6.848,8.271H6.418L6.357,21.24z"/>
		<path id="path3087" fill="#989899" d="M18.909,8.327H6.298V-5.182L18.909,8.327z"/>
		<path id="path3089" fill="#707070" d="M6.358,21.236l12.55-12.968H6.299L6.358,21.236z"/>
	</g>
</g>
<g id="layer2">
	<path id="path19740" fill="#D3D3D3" stroke="#010202" stroke-width="0.6331" d="M12.816,11.073
		c0.906-1.366,2.214-2.524,5.928-2.431c2.522,0.364,4.373,2.488,5.887,4.095l-4.137,1.877L12.816,11.073z"/>
	<path id="path19738" fill="#D3D3D3" stroke="#010202" stroke-width="0.6331" d="M20.75,14.528c2.414-1.604,7.385-2.646,7.678-1.535
		c0.072,2.448-1.24,3.237-3.754,3.796c2.07,0.327,3.925,1.182,2.943,3.754c-1.585,1.111-5.015,0.006-7.252-0.512L20.75,14.528z"/>
	<path id="path10966" fill="#FFFFFF" stroke="#0E0506" stroke-width="0.5844" d="M12.877,12.636c0,1.149-0.897,2.082-2.005,2.083
		c-1.108,0-2.006-0.932-2.007-2.081c0-0.001,0-0.001,0-0.002c0-1.149,0.897-2.082,2.005-2.082
		C11.978,10.554,12.876,11.486,12.877,12.636L12.877,12.636z"/>
	<path id="path11841" fill="#FFFFFF" stroke="#0E0506" stroke-width="0.5844" d="M10.901,12.652c0,0.2-0.108,0.361-0.241,0.361
		s-0.241-0.161-0.241-0.361l0,0c0-0.2,0.108-0.362,0.241-0.362S10.901,12.452,10.901,12.652L10.901,12.652z"/>
	<path id="path11843" fill="#D3D3D3" stroke="#010202" stroke-width="0.6331" d="M14.624,20.977
		c-0.376-0.629,3.167-1.104,4.69-1.281c-0.101,1.07,0.453,1.816-2.154,2.441C16.193,22.313,15.257,21.822,14.624,20.977z"/>
	<path id="path13591" fill="#EDEDED" stroke="#010202" stroke-width="0.3896" d="M5.714,14.431c1.116,1.056,1.859,2.073,2.986,3.256
		c-0.038,0.551-0.345,2.389-0.125,2.482c1.365,0.576,3.93,0.9,5.735,0.986c1.625-1.367,4.024-1.195,6.032-1.416
		c1.033-1.236,1.6-2.605,1.508-4.164c-2.887-1.653-5.609-4.746-9.139-4.373c0.528,1.579,0.346,2.553-1.056,3.408
		c-1.516,0.445-2.301-0.312-2.986-1.749C7.716,13.109,6.665,13.76,5.714,14.431z"/>
	<rect id="rect17085" x="14.044" y="13.596" fill="#010202" stroke="#010202" stroke-width="0.0574" width="0.621" height="0.674"/>
	<rect id="rect17960" x="15.261" y="12.857" fill="#010202" stroke="#010202" stroke-width="0.0574" width="0.621" height="0.674"/>
	<rect id="rect17962" x="15.266" y="14.042" fill="#010202" stroke="#010202" stroke-width="0.0574" width="0.621" height="0.674"/>
	<rect id="rect17964" x="16.481" y="13.585" fill="#010202" stroke="#010202" stroke-width="0.0574" width="0.621" height="0.675"/>
	<rect id="rect17966" x="16.472" y="14.788" fill="#010202" stroke="#010202" stroke-width="0.0574" width="0.622" height="0.674"/>
	<rect id="rect17968" x="17.709" y="14.757" fill="#010202" stroke="#010202" stroke-width="0.0574" width="0.621" height="0.674"/>
	<rect id="rect17970" x="17.709" y="16.024" fill="#010202" stroke="#010202" stroke-width="0.0574" width="0.621" height="0.675"/>
	<rect id="rect17972" x="16.472" y="16.024" fill="#010202" stroke="#010202" stroke-width="0.0574" width="0.622" height="0.675"/>
	<rect id="rect17974" x="16.502" y="17.262" fill="#010202" stroke="#010202" stroke-width="0.0574" width="0.621" height="0.674"/>
	<rect id="rect17976" x="17.709" y="17.23" fill="#010202" stroke="#010202" stroke-width="0.0574" width="0.621" height="0.674"/>
	<rect id="rect17978" x="18.915" y="17.713" fill="#010202" stroke="#010202" stroke-width="0.0574" width="0.621" height="0.674"/>
	<rect id="rect17980" x="18.915" y="16.507" fill="#010202" stroke="#010202" stroke-width="0.0574" width="0.621" height="0.674"/>
	<rect id="rect17982" x="20.121" y="17.201" fill="#010202" stroke="#010202" stroke-width="0.0574" width="0.621" height="0.674"/>
	<rect id="rect17984" x="20.121" y="16.024" fill="#010202" stroke="#010202" stroke-width="0.0574" width="0.621" height="0.675"/>
	<rect id="rect17986" x="18.915" y="15.27" fill="#010202" stroke="#010202" stroke-width="0.0574" width="0.621" height="0.674"/>
	<path id="path17988" fill="#D3D3D3" stroke="#010202" stroke-width="0.2435" d="M12.709,16.704l2.581,0.021l-1.941,2.623
		l-1.77-0.086"/>
	<path id="path7470" fill="#D3D3D3" stroke="#010202" stroke-width="0.5844" d="M8.761,17.859c-0.818-1.437-2.507-2.856-3.036-3.303
		c-0.239,0.083-1.72,0.695-1.462,1.303c0.698,1.061,2.246,1.971,2.83,2.508c-0.779,0.221-1.7,0.686-1.362,1.285
		c0.194,0.273,0.435,0.762,0.805,0.682c0.946-0.623,1.691-0.527,2.175-1.152L8.761,17.859z"/>
</g>
</svg>
