<?xml version="1.0" encoding="utf-8"?>
<!-- Generator: Adobe Illustrator 16.0.0, SVG Export Plug-In . SVG Version: 6.00 Build 0)  -->
<!DOCTYPE svg PUBLIC "-//W3C//DTD SVG 1.1//EN" "http://www.w3.org/Graphics/SVG/1.1/DTD/svg11.dtd">
<svg version="1.1"
	 id="svg2" xmlns:dc="http://purl.org/dc/elements/1.1/" xmlns:cc="http://creativecommons.org/ns#" xmlns:rdf="http://www.w3.org/1999/02/22-rdf-syntax-ns#" xmlns:svg="http://www.w3.org/2000/svg" xmlns:sodipodi="http://sodipodi.sourceforge.net/DTD/sodipodi-0.dtd" xmlns:inkscape="http://www.inkscape.org/namespaces/inkscape" sodipodi:docname="Central nervous system.svg.2012_08_15_16_41_36.0.svg" inkscape:version="0.48.1 "
	 xmlns="http://www.w3.org/2000/svg" xmlns:xlink="http://www.w3.org/1999/xlink" x="0px" y="0px" width="100px" height="100px"
	 viewBox="0 0 100 100" enable-background="new 0 0 100 100" xml:space="preserve">
<sodipodi:namedview  fit-margin-left="0" fit-margin-top="0" showgrid="false" inkscape:cy="54.44365" inkscape:cx="19.225203" inkscape:zoom="4.9749909" borderopacity="1.0" bordercolor="#666666" pagecolor="#ffffff" id="base" fit-margin-bottom="0" fit-margin-right="0" inkscape:window-maximized="1" inkscape:window-y="-8" inkscape:current-layer="layer3" inkscape:window-x="-8" inkscape:pageshadow="2" inkscape:document-units="px" inkscape:pageopacity="0.0" inkscape:window-height="718" inkscape:window-width="1366">
	</sodipodi:namedview>
<g id="layer3" transform="translate(-218.37222,-675.62537)" inkscape:label="Circonvolutions" inkscape:groupmode="layer">
	<path id="path3768" fill="#FFFFFF" d="M276.435,680.25c-2.705-0.014-5.439,0.584-8.094,1.688c-2.847-0.8-6.85-1.814-11.688,0.5
		c-3.042-0.514-6.119,0.522-8.688,2.656c-1.926-0.228-3.756,0.104-5.25,0.844c-1.662,0.823-2.898,2.01-4,3.188
		c-5.395,1.732-8.769,4.235-10.813,7.031c-2.003,2.741-2.828,5.393-3.875,7.563c-1.929,1.46-3.754,3.337-4.719,6.031
		c-1.035,2.891-1.06,6.454-0.063,11.031c-0.626,5.734,0.439,10.399,3.5,13.438c2.904,2.883,7.153,3.768,11.875,3.375
		c3.563,2.33,8.167,2.476,13.156,1.688c2.704,1.859,5.833,3.367,9.531,4.156c1.049,3.191,1.77,6.51,3.125,9.688
		c1.536,3.602,4.197,7.046,8.844,8.906c2.521,1.01,4.688,3.234,6.031,5.031c0.007,0.009,0.025,0.022,0.031,0.031
		c0.771,1.238,1.223,2.229,2.469,3.188c1.309,1.006,2.834,1.195,4.563,1.313c4.546,0.289,8.047-1.693,10.656-3.813v-0.031
		c0.117-0.094,0.246-0.174,0.344-0.281c0.414-0.455,0.598-0.982,0.688-1.375c0.18-0.786,0.092-1.25-0.031-1.844
		c-0.246-1.189-0.824-2.813-2.219-5.875c-0.077-0.169-0.139-0.352-0.219-0.531c1.2-0.03,2.371-0.243,3.5-0.531
		c4.076-1.04,7.664-3.288,10.063-5.063c3.867-2.861,6.479-5.066,8.063-7.406c1.807-2.671,2.563-7.66,1.313-10.594
		c0.435-0.353,0.84-0.732,1.219-1.156c3.159-3.537,3.451-8.816,1.719-15.156c1.182-3.906,1.086-7.146-0.188-9.625
		c-1.148-2.236-2.918-3.579-4.563-4.656c-1.155-4.31-4.223-7.962-9.125-9.406c-1.34-2.132-2.926-3.993-4.938-5.344
		c-1.994-1.34-4.422-2.067-7.031-2.094c-4.575-4.175-9.588-6.385-14.656-6.563C276.786,680.244,276.614,680.251,276.435,680.25z
		 M276.872,685.594c3.678,0.059,7.266,1.796,11.156,5.469c-0.022,0.041-0.043,0.083-0.063,0.125
		c-0.402,0.96-1.764,3.696-4.469,4.938c-0.966,0.445-1.385,1.583-0.936,2.541c0.448,0.958,1.595,1.374,2.561,0.928l0,0
		c4.146-1.904,5.875-5.667,6.406-6.938c0.04-0.101,0.072-0.206,0.094-0.313c1.536,0.003,2.725,0.415,3.875,1.188
		c1.045,0.702,2.08,1.756,3.031,3.156c-0.017,0.027-0.094,0.156-0.094,0.156c-0.072,0.098-0.135,0.203-0.188,0.313
		c0,0-0.208,0.477-0.406,0.906c-0.117,0.234-0.244,0.485-0.344,0.719c-0.342,0.651-0.77,1.378-1.281,2.031
		c-0.605,0.774-1.287,1.326-1.75,1.5s-0.676,0.247-1.438-0.313c-0.861-0.625-2.07-0.439-2.7,0.416s-0.442,2.053,0.419,2.678l0,0
		c1.596,1.172,3.58,1.383,5.094,0.813c0.59-0.223,1.096-0.559,1.563-0.906c0.398,1.002,0.953,1.998,1.625,3
		c0.532,0.913,1.709,1.225,2.63,0.697c0.92-0.528,1.234-1.696,0.702-2.608c-0.043-0.074-0.092-0.146-0.145-0.213
		c-0.988-1.474-1.458-2.527-1.563-3.406c-0.1-0.842,0.072-1.705,0.813-3.031c4.098,0.899,5.377,2.778,6.031,6.438
		c0.138,0.757,0.595,1.433,1.25,1.844c1.76,1.109,3.006,2.041,3.563,3.125c0.475,0.924,0.74,2.258,0.063,4.781
		c-0.795,0.506-2.248,0.728-3.688,0.625c-0.781-0.056-1.541-0.186-2.125-0.344c-0.583-0.158-1.064-0.434-0.938-0.344
		c-0.87-0.616-2.079-0.417-2.7,0.447c-0.622,0.863-0.42,2.062,0.45,2.678c0.687,0.486,1.322,0.68,2.156,0.906
		s1.82,0.394,2.875,0.469c1.18,0.084,2.484,0.066,3.75-0.25c1.331,5.115,0.767,8.004-0.625,9.563
		c-1.379,1.543-4.377,2.541-9.344,2.344c-0.323-2.186-0.406-3.264-0.375-3.469c0.016-0.104-0.023-0.031,0.063-0.156
		s0.339-0.409,0.719-0.844c0.712-0.783,0.648-1.99-0.141-2.696c-0.355-0.318-0.818-0.493-1.297-0.491
		c-0.568,0.003-1.105,0.254-1.469,0.688c-0.354,0.404-0.652,0.727-0.969,1.188s-0.621,1.113-0.719,1.75
		c-0.195,1.272,0.066,2.379,0.406,4.656c0.002,0.105,0.012,0.209,0.031,0.313c-0.857,0.579-1.502,0.689-2.313,0.594
		c-0.966-0.113-2.184-0.66-3.5-1.469c-1.121-0.691-2.758-0.456-3.625,0.531c-2.187,2.492-3.506,3.342-5.344,3.594
		c-0.029-0.054-0.061-0.105-0.094-0.156c-0.565-1.075-0.809-1.627-0.875-1.969s-0.054-0.73,0.281-1.875
		c0.313-1.008-0.258-2.076-1.274-2.386c-0.204-0.062-0.418-0.091-0.632-0.083c-0.852,0.02-1.588,0.592-1.813,1.406
		c-0.407,1.393-0.563,2.557-0.344,3.688s0.697,1.949,1.25,3c0.02,0.043,0.04,0.084,0.063,0.125
		c-2.683,2.314-4.466,2.719-6.094,2.656c-1.49-0.057-3.158-0.734-5.094-1.438c0.025-0.176,0.025-0.355,0-0.531
		c-0.397-3.291-0.159-4.718,0.188-5.438c0.346-0.72,1.041-1.2,2.375-2.375c0.821-0.67,0.939-1.873,0.265-2.688
		c-0.407-0.49-1.033-0.748-1.671-0.688c-0.432,0.033-0.838,0.209-1.156,0.5c-1.125,0.991-2.466,1.834-3.313,3.594
		c-0.814,1.692-0.938,3.839-0.563,7.188c-6.685,0.527-10.909-1.276-14.781-4.125c0.016-0.082,0.026-0.166,0.031-0.25
		c0.19-1.729,0.526-2.121,0.813-2.375s0.984-0.525,2.219-1.063c0.974-0.424,1.417-1.549,0.99-2.516
		c-0.317-0.717-1.044-1.17-1.834-1.141c-0.237,0.01-0.47,0.063-0.688,0.156c-0.968,0.422-2.108,0.678-3.25,1.688
		s-1.819,2.633-2.063,4.844c-0.015,0.072-0.025,0.146-0.031,0.219c-4.448,0.641-7.589,0.174-9.344-1.25
		c-0.586-0.476-1.374-0.719-2.125-0.625c-4.208,0.535-6.861-0.217-8.375-1.719c-1.514-1.503-2.463-4.321-1.844-9.313
		c0.015-0.118,0.032-0.225,0.031-0.344c0.33-0.113,0.654-0.188,0.938-0.219c0.849-0.093,1.637,0.061,2.938,0.875
		c0.863,0.616,2.066,0.422,2.688-0.434s0.426-2.05-0.438-2.666c-0.061-0.043-0.123-0.083-0.188-0.119
		c-1.353-0.847-2.735-1.354-4.094-1.469c-0.453-0.038-0.898-0.049-1.344,0c-0.393,0.043-0.783,0.152-1.156,0.25
		c-0.28-2.396-0.074-4.053,0.344-5.219c0.436-1.218,1.114-2.097,2.156-2.969c1.077,0.875,2.789,2.271,5.25,2.969
		c1.677,0.476,3.677,0.602,5.969,0.156c0.136,0.004,0.272-0.006,0.406-0.031c0.336-0.065,0.662-0.16,0.969-0.281
		c0.01-0.002-0.01-0.028,0-0.031c0.651-0.185,1.341-0.405,2.031-0.688c3.072-1.255,5.064-1.105,6.469-0.625
		c1.405,0.48,2.292,1.369,2.875,2.063c0.679,0.813,1.893,0.927,2.713,0.253c0.82-0.673,0.935-1.878,0.256-2.691
		c-0.798-0.95-2.268-2.455-4.594-3.25c-1.747-0.597-3.963-0.759-6.531-0.156c0.103-1.384-0.022-2.584,0-2.906
		c0.086-1.051-0.703-1.972-1.762-2.058c-0.079-0.006-0.159-0.008-0.238-0.004c-0.995,0.041-1.794,0.826-1.844,1.813
		c-0.09,1.298,0.12,2.549-0.031,3.5c-0.076,0.476-0.247,0.773-0.375,0.938c-0.059,0.076-0.103,0.164-0.188,0.219
		c-2.154,0.603-3.753,0.465-5.063,0.094c-1.609-0.457-2.799-1.336-3.813-2.156c1.174-2.456,1.917-4.605,3.188-6.344
		c1.442-1.974,3.583-3.764,8.625-5.25c0.496-0.146,0.937-0.43,1.281-0.813c1.044-1.161,2.037-2.023,2.875-2.438
		c0.666-0.33,1.234-0.487,2.094-0.344c0.614,1.256,1.532,2.576,2.25,4.094c0.006,0.073,0.017,0.146,0.031,0.219
		c0.133,0.648-0.008,0.83-0.469,1.281c-0.46,0.451-1.306,0.891-2.031,1.188c-0.983,0.411-1.444,1.535-1.03,2.51
		c0.414,0.975,1.547,1.432,2.53,1.021l0,0c0.942-0.385,2.175-0.947,3.25-2c0.624,0.534,1.312,0.877,1.969,1.031
		c1.405,0.329,2.641,0.134,3.094,0.125c1.063,0.04,1.956-0.782,1.997-1.835c0.04-1.054-0.789-1.94-1.851-1.98
		c-0.07-0.002-0.139-0.001-0.208,0.003c-0.897,0.018-1.668,0.076-2.125-0.031c-0.456-0.107-0.543-0.003-0.781-0.844
		c-0.695-2.459-2.024-4.529-2.75-5.688c1.965-1.905,3.289-2.219,5-1.688c0.735,0.229,1.549,0.129,2.219-0.25
		c3.448-1.969,5.105-1.515,7.563-0.75c-0.075,0.936-0.017,2.014,0.125,3.281c0.288,2.563,0.917,5.789,1.75,8.719
		c0.12,0.423-0.029,1.9-0.75,3c-0.72,1.1-1.714,1.872-3.344,1.875c-1.062-0.057-1.969,0.75-2.026,1.802
		c-0.058,1.053,0.756,1.953,1.817,2.01c0.07,0.004,0.14,0.004,0.209,0c2.991-0.007,5.321-1.682,6.594-3.625
		c0.952-1.454,1.469-3.02,1.438-4.563c0.572,0.153,1.125,0.273,1.594,0.344c1.053,0.154,2.031-0.567,2.188-1.612
		c0.155-1.044-0.572-2.015-1.625-2.169c-0.702-0.106-1.703-0.361-2.375-0.688s-0.722-0.541-0.719-0.5
		c-0.024-0.251-0.099-0.496-0.219-0.719c-0.318-1.541-0.578-3.061-0.719-4.313c-0.119-1.063-0.119-1.879-0.094-2.375
		c0.069-0.078,0.132-0.162,0.188-0.25C272.394,686.121,274.65,685.559,276.872,685.594z M309.247,736.688
		c0.699,1.625,0.68,3.393-0.625,4.938c-1.021,1.43-3.154,3.449-6.813,6.156c-2.014,1.49-5.257,3.424-8.125,4.156
		c-1.434,0.365-2.726,0.425-3.75,0.188c-4.131-1.367-4.903-7.719-3.438-11.25c1.836-0.663,3.537-1.793,5.156-3.313
		c1.164,0.561,2.386,1.051,3.813,1.219c1.947,0.229,4.141-0.276,6.094-1.531C304.38,737.395,306.962,737.231,309.247,736.688z
		 M266.466,743.875c1.933,0.702,4.306,1.879,7.438,2c1.661,0.064,4.371-0.923,6.469-1.906c-0.244,3.453,0.369,6.955,2.375,9.656
		c0.537,0.724,1.125,1.369,1.781,1.906c0.74,1.854,1.498,3.609,2.188,5.125c0.86,1.89,1.248,2.998,1.5,3.75
		c-1.637,1.145-3.209,1.766-5.469,1.625c-1.098-0.076-1.434-0.143-1.5-0.156c0.047,0.025-0.387-0.533-1.281-1.938
		c-0.035-0.058-0.086-0.102-0.125-0.156c-1.695-2.273-4.438-5.292-8.469-6.906c-3.241-1.297-4.549-3.121-5.75-5.938
		c-0.81-1.898-1.511-4.301-2.281-6.875C264.351,744.059,265.386,743.983,266.466,743.875z"/>
	<path id="path3780" inkscape:connector-curvature="0" fill="#FFFFFF" d="M241.502,716.796c-0.974,0.07-1.741,0.852-1.784,1.82
		c-0.106,2.291-0.56,3.008-0.982,3.42c-0.422,0.412-1.212,0.665-2.436,1.302c-1.167,0.609-2.603,1.49-3.588,3.112
		c-0.563,0.895-0.289,2.072,0.613,2.631s2.089,0.285,2.652-0.609c0.011-0.018,0.022-0.035,0.032-0.053
		c0.472-0.777,1.098-1.186,2.085-1.7c0.782-0.407,2.098-0.758,3.337-1.968c0.295-0.288,0.563-0.623,0.802-0.994
		c0.151,0.138,0.287,0.298,0.451,0.417c1.413,1.03,3.168,1.163,4.621,0.825c2.906-0.675,5.236-2.765,6.796-4.305
		c0.768-0.729,0.795-1.937,0.061-2.699c-0.735-0.762-1.953-0.789-2.721-0.061c-0.019,0.018-0.038,0.037-0.056,0.055
		c-1.327,1.311-3.536,2.962-4.951,3.291c-0.708,0.165-1.056,0.119-1.463-0.179c-0.408-0.297-1.021-1.079-1.463-2.853
		C243.284,717.344,242.438,716.731,241.502,716.796z"/>
	<path id="path3798" inkscape:connector-curvature="0" fill="#FFFFFF" d="M287.958,710.312c-1.063-0.015-1.937,0.828-1.951,1.882
		c-0.011,0.719,0.387,1.383,1.029,1.717c2.193,1.19,3.192,2.271,3.559,2.992c0.365,0.721,0.312,1.135,0.01,1.8
		c-0.604,1.329-2.773,3-4.06,3.837c-0.89,0.577-1.14,1.761-0.558,2.644c0.582,0.882,1.775,1.131,2.665,0.553
		c0.003-0.002,0.005-0.003,0.008-0.005c0.849-0.552,2.274-1.425,3.538-2.714c0.181,0.103,0.369,0.192,0.551,0.278
		c1.223,0.578,2.484,0.863,3.568,0.935c1.059,0.104,2.001-0.661,2.106-1.71c0.105-1.049-0.667-1.984-1.724-2.089
		c-0.044-0.004-0.088-0.007-0.132-0.009c-0.438-0.029-1.544-0.283-2.165-0.577c-0.057-0.026-0.072-0.039-0.09-0.049
		c0.48-1.375,0.503-3.068-0.281-4.613c-0.878-1.731-2.551-3.212-5.152-4.623C288.599,710.402,288.282,710.316,287.958,710.312
		L287.958,710.312z"/>
	<path id="path3802" inkscape:connector-curvature="0" fill="#FFFFFF" d="M273.265,707.757c-0.989,0.061-1.77,0.857-1.805,1.839
		c-0.102,2.017,0.215,3.721,0.813,5.1c0.314,1.434-0.182,2.499-0.953,3.251c-0.781,0.763-1.775,0.915-2.045,0.815
		c-0.968-0.434-2.108-0.005-2.545,0.956c-0.437,0.961-0.005,2.092,0.963,2.525c0.078,0.035,0.158,0.064,0.239,0.089
		c2.208,0.819,4.468-0.083,6.084-1.661c0.639-0.624,1.186-1.396,1.573-2.276c1.726,0.979,3.479,1.234,4.39,1.451
		c1.022,0.29,2.088-0.296,2.381-1.31c0.291-1.014-0.3-2.071-1.322-2.36c-0.051-0.015-0.104-0.027-0.156-0.038
		c-1.359-0.325-2.844-0.613-3.869-1.372c-0.383-0.283-0.744-0.609-1.032-1.074c-0.002-0.002,0.002-0.007,0-0.01
		c-0.063-0.229-0.168-0.445-0.311-0.636c-0.287-0.75-0.436-1.779-0.36-3.261c0.068-1.052-0.736-1.96-1.797-2.028
		C273.43,707.751,273.347,707.751,273.265,707.757z"/>
</g>
</svg>
