<?xml version="1.0" encoding="utf-8"?>
<!-- Generator: Adobe Illustrator 16.0.2, SVG Export Plug-In . SVG Version: 6.00 Build 0)  -->
<!DOCTYPE svg PUBLIC "-//W3C//DTD SVG 1.1//EN" "http://www.w3.org/Graphics/SVG/1.1/DTD/svg11.dtd">
<svg version="1.1" xmlns="http://www.w3.org/2000/svg" xmlns:xlink="http://www.w3.org/1999/xlink" x="0px" y="0px" width="32px"
	 height="32px" viewBox="0 0 32 32" enable-background="new 0 0 32 32" xml:space="preserve">
<g id="Ebene_1" display="none">
	<path display="inline" fill="#010101" d="M16,0C7.2,0,0,7.2,0,16s7.2,16,16,16s16-7.2,16-16S25,0,16,0z M24,18H8v-4h16V18z"/>
</g>
<g id="Ebene_2">
	<path id="undo-5-icon" d="M16,0.087C7.211,0.087,0.087,7.212,0.087,16S7.211,31.912,16,31.912c8.788,0,15.913-7.125,15.913-15.913
		S24.787,0.087,16,0.087z M21.916,27.02c9.217-11.741-4.684-18.517-9.972-11.827l2.168,2.168H6.079V9.333l1.986,1.98
		C19.838,0.134,35.697,16.386,21.916,27.02z"/>
</g>
</svg>
