<?xml version="1.0" encoding="utf-8"?>
<!-- Generator: Adobe Illustrator 16.0.2, SVG Export Plug-In . SVG Version: 6.00 Build 0)  -->
<!DOCTYPE svg PUBLIC "-//W3C//DTD SVG 1.1//EN" "http://www.w3.org/Graphics/SVG/1.1/DTD/svg11.dtd">
<svg version="1.1" id="Ebene_1" xmlns="http://www.w3.org/2000/svg" xmlns:xlink="http://www.w3.org/1999/xlink" x="0px" y="0px"
	 width="32px" height="32px" viewBox="0 0 32 32" enable-background="new 0 0 32 32" xml:space="preserve">
<g id="layer1">
	<polygon id="polygon4099" fill="#6C6C6A" points="22.983,16.744 23.249,16.744 19.938,15.085 20.063,15.269 	"/>
	<polygon id="polygon4101" fill="#6C6C6A" points="22.983,16.744 22.985,16.744 20.063,18.113 19.938,18.294 23.249,16.744 	"/>
	<polygon id="polygon4103" fill="#6C6C6A" points="20.06,18.113 20.06,15.269 20.063,15.269 19.938,15.085 19.938,18.294 
		20.063,18.113 	"/>
	<polygon id="polygon4105" fill="#484947" points="20.06,15.269 20.06,18.113 20.063,18.113 22.985,16.744 22.983,16.744 
		20.063,15.269 	"/>
	<path id="path4109" fill="#313131" d="M2.602,15.191l0.789,2.704l0.718-2.515c0.077-0.264,0.134-0.443,0.17-0.538
		c0.038-0.096,0.107-0.188,0.209-0.275c0.102-0.087,0.241-0.131,0.418-0.131c0.18,0,0.321,0.044,0.423,0.131
		s0.173,0.182,0.214,0.283c0.042,0.104,0.099,0.28,0.173,0.53l0.718,2.515l0.798-2.704c0.054-0.195,0.096-0.336,0.129-0.424
		c0.032-0.088,0.086-0.165,0.164-0.232c0.077-0.067,0.187-0.1,0.333-0.1c0.145,0,0.271,0.051,0.377,0.151
		c0.106,0.101,0.16,0.221,0.16,0.355c0,0.124-0.045,0.312-0.137,0.562L7.271,18.4c-0.086,0.247-0.152,0.424-0.2,0.535
		c-0.047,0.108-0.121,0.206-0.223,0.29c-0.102,0.086-0.241,0.129-0.418,0.129c-0.183,0-0.327-0.045-0.432-0.138
		c-0.105-0.091-0.182-0.202-0.232-0.336c-0.051-0.134-0.106-0.307-0.165-0.519l-0.69-2.358l-0.669,2.358
		c-0.088,0.328-0.185,0.575-0.289,0.743c-0.103,0.165-0.286,0.249-0.544,0.249c-0.133,0-0.246-0.023-0.339-0.075
		c-0.094-0.054-0.17-0.127-0.233-0.223c-0.063-0.094-0.116-0.208-0.163-0.34c-0.048-0.133-0.085-0.234-0.11-0.313l-0.981-2.896
		c-0.096-0.273-0.145-0.459-0.145-0.563c0-0.13,0.051-0.246,0.155-0.35c0.103-0.104,0.231-0.156,0.382-0.156
		c0.201,0,0.336,0.058,0.407,0.17C2.447,14.72,2.522,14.916,2.602,15.191z"/>
	<path id="path4111" fill="#313131" d="M12.484,17.193h-2.367c0.002,0.275,0.058,0.517,0.167,0.727
		c0.106,0.209,0.25,0.367,0.429,0.474c0.179,0.107,0.376,0.159,0.592,0.159c0.145,0,0.277-0.016,0.396-0.05
		c0.121-0.034,0.236-0.086,0.349-0.159c0.112-0.073,0.216-0.151,0.309-0.233c0.095-0.083,0.217-0.194,0.369-0.337
		c0.061-0.055,0.149-0.08,0.266-0.08c0.124,0,0.224,0.033,0.301,0.103c0.078,0.067,0.115,0.165,0.115,0.288
		c0,0.108-0.043,0.237-0.129,0.383c-0.085,0.147-0.215,0.287-0.386,0.421c-0.173,0.137-0.391,0.245-0.652,0.333
		c-0.262,0.089-0.563,0.134-0.902,0.134c-0.776,0-1.38-0.222-1.813-0.664c-0.432-0.443-0.646-1.044-0.646-1.804
		c0-0.357,0.052-0.69,0.159-0.995c0.107-0.307,0.262-0.568,0.465-0.788c0.205-0.218,0.455-0.386,0.752-0.502
		c0.298-0.116,0.629-0.175,0.993-0.175c0.472,0,0.878,0.1,1.217,0.299c0.339,0.198,0.591,0.456,0.76,0.773
		c0.169,0.316,0.253,0.638,0.253,0.966c0,0.305-0.086,0.5-0.261,0.591C13.044,17.148,12.8,17.193,12.484,17.193z M10.117,16.507
		h2.194c-0.03-0.413-0.141-0.723-0.335-0.927c-0.194-0.207-0.448-0.31-0.765-0.31c-0.3,0-0.549,0.104-0.743,0.313
		C10.276,15.791,10.157,16.097,10.117,16.507z"/>
	<path id="path4113" fill="#313131" d="M15.496,13.33v1.848c0.228-0.236,0.459-0.417,0.696-0.541c0.235-0.126,0.529-0.19,0.879-0.19
		c0.4,0,0.751,0.096,1.054,0.285c0.304,0.191,0.539,0.468,0.706,0.83c0.168,0.363,0.25,0.792,0.25,1.287
		c0,0.367-0.048,0.703-0.141,1.007c-0.091,0.306-0.227,0.573-0.406,0.797c-0.176,0.226-0.391,0.398-0.643,0.52
		c-0.254,0.123-0.533,0.184-0.839,0.184c-0.184,0-0.36-0.021-0.522-0.065c-0.164-0.043-0.305-0.104-0.419-0.175
		c-0.115-0.072-0.215-0.146-0.297-0.223c-0.079-0.077-0.188-0.192-0.32-0.348v0.121c0,0.227-0.054,0.399-0.164,0.517
		c-0.109,0.115-0.248,0.173-0.417,0.173c-0.17,0-0.307-0.059-0.409-0.173c-0.102-0.119-0.152-0.29-0.152-0.517v-5.282
		c0-0.245,0.049-0.43,0.147-0.556c0.099-0.125,0.237-0.188,0.414-0.188c0.188,0,0.33,0.059,0.431,0.178
		C15.446,12.937,15.496,13.107,15.496,13.33z M15.553,16.922c0,0.482,0.11,0.852,0.331,1.111c0.22,0.259,0.508,0.386,0.866,0.386
		c0.305,0,0.568-0.129,0.788-0.395c0.221-0.265,0.33-0.644,0.33-1.137c0-0.319-0.046-0.594-0.14-0.825
		c-0.091-0.231-0.22-0.408-0.388-0.535c-0.17-0.125-0.367-0.188-0.591-0.188c-0.23,0-0.435,0.062-0.616,0.188
		c-0.181,0.125-0.322,0.309-0.426,0.545C15.605,16.31,15.553,16.596,15.553,16.922z"/>
	<path id="path4117" fill="#313131" d="M28.173,16.984v1.609c0,0.254-0.059,0.446-0.172,0.573c-0.116,0.123-0.268,0.19-0.458,0.19
		c-0.182,0-0.331-0.067-0.445-0.19c-0.114-0.127-0.171-0.319-0.171-0.573v-1.927c0-0.305-0.009-0.541-0.029-0.71
		c-0.023-0.168-0.075-0.306-0.17-0.413c-0.091-0.107-0.236-0.162-0.434-0.162c-0.396,0-0.655,0.137-0.784,0.407
		c-0.124,0.273-0.188,0.662-0.188,1.171v1.635c0,0.252-0.058,0.441-0.169,0.571c-0.117,0.126-0.267,0.192-0.452,0.192
		c-0.184,0-0.333-0.066-0.452-0.192c-0.116-0.13-0.176-0.319-0.176-0.571v-3.46c0-0.229,0.055-0.401,0.16-0.519
		c0.105-0.12,0.242-0.178,0.413-0.178c0.167,0,0.302,0.056,0.413,0.166c0.11,0.111,0.165,0.265,0.165,0.459v0.115
		c0.211-0.25,0.436-0.435,0.673-0.554c0.239-0.118,0.508-0.176,0.799-0.176c0.304,0,0.565,0.061,0.784,0.182s0.4,0.306,0.542,0.549
		c0.202-0.247,0.421-0.432,0.653-0.551c0.236-0.119,0.495-0.179,0.777-0.179c0.329,0,0.616,0.064,0.854,0.193
		c0.24,0.13,0.417,0.317,0.537,0.558C30.949,15.419,31,15.763,31,16.233v2.362c0,0.254-0.058,0.446-0.174,0.573
		c-0.114,0.124-0.267,0.19-0.455,0.19c-0.184,0-0.333-0.066-0.451-0.192c-0.117-0.13-0.174-0.319-0.174-0.571v-2.033
		c0-0.261-0.012-0.469-0.033-0.625s-0.083-0.288-0.178-0.395c-0.1-0.106-0.247-0.159-0.444-0.159c-0.16,0-0.313,0.048-0.456,0.142
		c-0.144,0.095-0.253,0.223-0.334,0.382C28.217,16.106,28.173,16.468,28.173,16.984z"/>
</g>
</svg>
