<?xml version="1.0" encoding="utf-8"?>
<!-- Generator: Adobe Illustrator 16.0.2, SVG Export Plug-In . SVG Version: 6.00 Build 0)  -->
<!DOCTYPE svg PUBLIC "-//W3C//DTD SVG 1.1//EN" "http://www.w3.org/Graphics/SVG/1.1/DTD/svg11.dtd">
<svg version="1.1" id="Ebene_1" xmlns="http://www.w3.org/2000/svg" xmlns:xlink="http://www.w3.org/1999/xlink" x="0px" y="0px"
	 width="32px" height="32px" viewBox="0 0 32 32" enable-background="new 0 0 32 32" xml:space="preserve">
<g>
	<path fill="#010101" d="M12.737,12.655l-1.69,1.461l0.009,0.009C11.731,13.778,12.316,13.281,12.737,12.655z"/>
	<circle fill="#010101" cx="9.023" cy="10.157" r="2.164"/>
	<circle fill="#010101" cx="8.988" cy="21.596" r="2.164"/>
	<path fill="#010101" d="M11.178,17.713l-0.139,0.183l1.65,1.536l0.093-0.193C12.385,18.602,11.833,18.083,11.178,17.713z"/>
	<path fill="#010101" d="M16,0C7.2,0,0,7.2,0,16s7.2,16,16,16s16-7.2,16-16S25,0,16,0z M23.515,22.774l-9.671-4.364l0.004-1.373
		l-1.066,2.201c0.429,0.689,0.687,1.498,0.684,2.37c-0.006,2.474-2.018,4.473-4.49,4.465s-4.472-2.019-4.464-4.491
		s2.018-4.472,4.491-4.464c0.794,0.003,1.53,0.229,2.175,0.595l1.481-1.944l-1.603-1.644c-0.617,0.317-1.306,0.512-2.047,0.51
		c-2.473-0.008-4.471-2.018-4.464-4.491c0.008-2.473,2.019-4.47,4.49-4.464c2.472,0.008,4.472,2.018,4.464,4.492
		c-0.002,0.92-0.284,1.774-0.762,2.484l0.011-0.01l0.1,0.126l1.079,1.664l0.509-1.155l9.191-4.236l4.77,0.016l0.578,0.216
		l-11.077,6.689l-0.004,0.433l11.04,6.466L23.515,22.774z"/>
	<circle fill="#010101" cx="15.296" cy="16.03" r="1.3"/>
</g>
</svg>
