<?xml version="1.0" encoding="utf-8"?>
<!-- Generator: Adobe Illustrator 16.0.0, SVG Export Plug-In . SVG Version: 6.00 Build 0)  -->
<!DOCTYPE svg PUBLIC "-//W3C//DTD SVG 1.1//EN" "http://www.w3.org/Graphics/SVG/1.1/DTD/svg11.dtd">
<svg version="1.1" id="Ebene_1" xmlns="http://www.w3.org/2000/svg" xmlns:xlink="http://www.w3.org/1999/xlink" x="0px" y="0px"
	 width="32px" height="32px" viewBox="0 0 32 32" enable-background="new 0 0 32 32" xml:space="preserve">
<g>
	<polygon fill="#010101" points="4,28 4,0 0,4 0,28 0,32 4,32 28,32 32,28 	"/>
</g>
<path d="M7.688,2.813v22.5h20.25v-22.5H7.688z M10.063,22.991H8.5v-1.25h1.563V22.991z M10.063,20.509H8.5v-1.25h1.563V20.509z
	 M10.063,18.027H8.5v-1.25h1.563V18.027z M10.063,15.545H8.5v-1.25h1.563V15.545z M10.063,13.063H8.5v-1.25h1.563V13.063z
	 M10.063,10.581H8.5v-1.25h1.563V10.581z M10.063,8.099H8.5v-1.25h1.563V8.099z M10.063,5.617H8.5v-1.25h1.563V5.617z M11.115,4.224
	h12.897v7.75H11.115V4.224z M24.262,22.813H11.365v-7.75h12.897V22.813z M27.126,22.991h-1.563v-1.25h1.563V22.991z M27.126,20.509
	h-1.563v-1.25h1.563V20.509z M27.126,18.027h-1.563v-1.25h1.563V18.027z M27.126,15.545h-1.563v-1.25h1.563V15.545z M27.126,13.063
	h-1.563v-1.25h1.563V13.063z M27.126,10.581h-1.563v-1.25h1.563V10.581z M27.126,8.099h-1.563v-1.25h1.563V8.099z M27.126,5.617
	h-1.563v-1.25h1.563V5.617z"/>
</svg>
