<?xml version="1.0" encoding="utf-8"?>
<!-- Generator: Adobe Illustrator 16.0.2, SVG Export Plug-In . SVG Version: 6.00 Build 0)  -->
<!DOCTYPE svg PUBLIC "-//W3C//DTD SVG 1.1//EN" "http://www.w3.org/Graphics/SVG/1.1/DTD/svg11.dtd">
<svg version="1.1" xmlns="http://www.w3.org/2000/svg" xmlns:xlink="http://www.w3.org/1999/xlink" x="0px" y="0px" width="32px"
	 height="32px" viewBox="0 0 32 32" enable-background="new 0 0 32 32" xml:space="preserve">
<g id="Ebene_1">
	<path id="fullscreen-5-icon" fill="#010202" d="M0.383,4.935v24.149h31.232V4.935H0.383z M10.088,25.854H3.616v-6.472l1.588,1.583
		l2.592-2.591l3.3,3.3l-2.592,2.592L10.088,25.854z M7.796,15.646l-2.592-2.592l-1.588,1.584V8.165h6.473L8.503,9.753l2.592,2.592
		L7.796,15.646z M28.388,25.854h-6.472l1.585-1.588l-2.54-2.539l3.302-3.301l2.537,2.539l1.588-1.583V25.854L28.388,25.854z
		 M28.388,14.638L26.8,13.053l-2.537,2.539l-3.302-3.299l2.54-2.54l-1.585-1.587h6.472V14.638L28.388,14.638z"/>
</g>
<g id="Ebene_2" display="none">
	<path display="inline" fill="#020303" d="M28.753,17.605v-3.143l-3.774-1.573c-0.102-0.298-0.212-0.582-0.346-0.864l1.494-3.774
		l-2.359-2.359l-3.774,1.572c-0.282-0.141-0.573-0.252-0.863-0.361l-1.573-3.696h-3.145l-1.572,3.696
		c-0.314,0.109-0.613,0.228-0.944,0.369L8.123,5.979L5.764,8.18l1.494,3.695c-0.079,0-0.236,0.786-0.314,0.786l-3.695,1.573v3.145
		l3.695,1.572c0.11,0.322,0.236,0.629,0.385,0.943L5.834,23.59l2.201,2.201l3.695-1.494c0.299,0.143,0.605,0.252,0.943,0.361
		l1.572,3.934h3.145l1.572-3.775c0.299-0.111,0.59-0.229,0.865-0.361l3.774,1.492l2.2-2.199l-1.572-3.773
		c0.134-0.285,0.235-0.568,0.346-0.867l3.931-1.572L28.753,17.605z M16.173,20.752c-2.595,0-4.717-2.123-4.717-4.717
		c0-2.595,2.123-4.718,4.717-4.718s4.718,2.123,4.718,4.718C20.891,18.629,18.531,20.752,16.173,20.752z"/>
</g>
<g id="Ebene_3" display="none">
	<path display="inline" fill="#010202" d="M5.872,29.153c-1.064,0-1.923-0.859-1.924-1.921l0,0V7.226
		c0-1.064,0.86-1.923,1.924-1.923l0,0h10.314L13.438,8.05H6.697v18.357l17.549,0.001v-3.692l2.746-2.747v7.264
		c-0.001,1.062-0.861,1.923-1.924,1.925l0,0L5.872,29.153L5.872,29.153z"/>
	<path display="inline" fill="#010202" d="M22.512,7.13V4.074l7.905,7.907l-7.94,7.941v-3.177c0,0-4.657-0.323-7.996,1.745
		c-2.22,1.375-3.543,2.747-4.64,4.607c0,0,0.3-4.933,3.137-9.427C16.526,8.054,22.512,7.13,22.512,7.13z"/>
</g>
</svg>
