<?xml version="1.0" encoding="utf-8"?>
<!-- Generator: Adobe Illustrator 16.0.2, SVG Export Plug-In . SVG Version: 6.00 Build 0)  -->
<!DOCTYPE svg PUBLIC "-//W3C//DTD SVG 1.1//EN" "http://www.w3.org/Graphics/SVG/1.1/DTD/svg11.dtd">
<svg version="1.1" id="Ebene_1" xmlns="http://www.w3.org/2000/svg" xmlns:xlink="http://www.w3.org/1999/xlink" x="0px" y="0px"
	 width="32px" height="32px" viewBox="0 0 32 32" enable-background="new 0 0 32 32" xml:space="preserve">
<path id="Logo" d="M8.503,11.812H6.59v3.013H4.07v-3.013H2.158v8.273H4.07V16.68h2.52v3.405h1.913V11.812z M11.312,17.93H9.397
	v2.154h1.914V17.93z M17.646,18.417h-3.405c0.473-0.511,0.741-0.719,1.296-1.09c1.048-0.74,2.037-1.298,2.037-2.861
	c0-1.727-1.267-2.562-2.684-2.562c-1.779,0-2.932,1.356-2.819,3.36h1.636c0-0.88,0.267-1.634,1.193-1.634
	c0.566,0,0.925,0.371,0.925,1.008c0,0.545-0.391,0.938-0.935,1.344c-0.567,0.405-1.255,0.811-1.873,1.413
	c-0.709,0.695-1.111,1.657-1.122,2.688h5.75V18.417z M21.153,13.353c0.152,0,0.338,0.023,0.502,0.127
	c0.164,0.128,0.287,0.301,0.36,0.625h1.636c-0.216-1.471-1.224-2.201-2.498-2.201c-2.172,0-3.138,1.923-3.138,4.194
	c0,2.074,0.75,4.09,2.857,4.09c1.563,0,2.871-1.065,2.871-2.978c0-1.473-1.009-2.665-2.325-2.665c-0.688,0-1.316,0.197-1.677,0.856
	h-0.021C19.754,14.488,20.154,13.353,21.153,13.353z M29.843,16.621h-0.938V12.01h-1.677l-3.209,4.438v1.842h3.136v1.796h1.75
	v-1.796h0.936v-1.668H29.843z M27.188,14.013h0.021v2.608h-1.83L27.188,14.013z M20.885,15.994c0.792,0,1.225,0.602,1.225,1.356
	c0,0.66-0.487,1.239-1.216,1.239c-0.688,0-1.131-0.556-1.131-1.252C19.765,16.596,20.226,15.994,20.885,15.994z"/>
</svg>
