<?xml version="1.0" encoding="utf-8"?>
<!-- Generator: Adobe Illustrator 16.0.0, SVG Export Plug-In . SVG Version: 6.00 Build 0)  -->
<!DOCTYPE svg PUBLIC "-//W3C//DTD SVG 1.1//EN" "http://www.w3.org/Graphics/SVG/1.1/DTD/svg11.dtd">
<svg version="1.1" id="Ebene_1" xmlns="http://www.w3.org/2000/svg" xmlns:xlink="http://www.w3.org/1999/xlink" x="0px" y="0px"
	 width="200px" height="120px" viewBox="0 0 200 120" enable-background="new 0 0 200 120" xml:space="preserve">
<path fill="#010202" d="M190.588,19.576h-35.891c-1.456,0-2.638,1.181-2.638,2.64v47.496c0,1.459,1.182,2.639,2.638,2.639h35.891
	c1.456,0,2.637-1.18,2.637-2.639V22.216C193.225,20.757,192.044,19.576,190.588,19.576z M172.644,71.561
	c-0.729,0-1.322-0.593-1.322-1.321c0-0.728,0.593-1.318,1.322-1.318c0.727,0,1.317,0.591,1.317,1.318
	C173.961,70.968,173.37,71.561,172.644,71.561z M189.004,67.583c0,0.299-0.245,0.546-0.545,0.546h-31.633
	c-0.299,0-0.546-0.247-0.546-0.546V24.345c0-0.303,0.247-0.547,0.546-0.547h31.633c0.3,0,0.545,0.244,0.545,0.547V67.583z"/>
<g>
	<path fill="#010202" d="M98.253,3.947c-0.088-1.169-1.054-2.092-2.245-2.092h-85.97c-1.192,0-2.158,0.923-2.245,2.092L7.775,62.035
		c0,1.248,1.013,2.262,2.263,2.262h85.97c1.25,0,2.262-1.014,2.262-2.262L98.253,3.947z M11.653,5.862h82.738v47.575H11.653V5.862z"
		/>
	<path fill="#010202" d="M67.502,75.155c-3.62-0.903-4.524-3.619-4.524-7.24h-19.91c0,3.621-0.905,6.335-4.525,7.24
		c-0.877,0.22-0.905,1.809,0,1.809h14.479h14.479C68.407,76.967,68.379,75.375,67.502,75.155z"/>
	<path fill="#010202" d="M133.176,1.984h-3.879h-14.22h-3.88c-1.961,0-3.878,2.221-3.878,3.878v2.586v1.293v59.468v1.294v2.586
		c0,1.656,1.917,3.878,3.878,3.878h3.88h14.22h3.879c1.962,0,3.878-2.222,3.878-3.878v-2.586v-1.294V9.741V8.448V5.862
		C137.054,4.204,135.138,1.984,133.176,1.984z M134.469,73.065c-0.051,0.4-0.82,1.315-1.293,1.315h-3.879h-14.22h-3.88
		c-0.472,0-1.242-0.915-1.293-1.315l0.001-2.563h24.563V73.065z M109.905,8.448l-0.001-2.563c0.051-0.403,0.821-1.316,1.293-1.316
		h3.88h14.22h3.879c0.473,0,1.242,0.913,1.293,1.316v2.563H109.905z"/>
</g>
<rect x="83.662" y="48.784" fill="#FFFFFF" width="77.047" height="46.557"/>
<path fill="#010202" d="M160.247,45.963H84.126c-1.799,0-3.262,1.464-3.262,3.264v1.084v44.588c0,1.809,1.463,3.263,3.262,3.263
	h1.093h73.95h1.078c1.798,0,3.263-1.454,3.263-3.263V50.311v-1.084C163.51,47.427,162.055,45.963,160.247,45.963z M159.169,93.813
	h-73.95V50.311h73.95V93.813z"/>
<path fill="#010202" d="M163.628,100.355c-0.658-0.604-1.934-1.102-2.828-1.102H83.58c-0.9,0-2.162,0.497-2.818,1.102
	l-12.953,11.945v2.179c0,0,0,3.263,3.263,3.263h102.229c3.263,0,3.263-3.263,3.263-3.263v-2.179L163.628,100.355z M107.896,107.264
	h28.578l2.204,3.55h-32.986L107.896,107.264z M129.796,113.387c0,0.606-0.487,1.093-1.083,1.093h-13.047
	c-0.603,0-1.093-0.486-1.093-1.093v-1.086h15.223V113.387z"/>
<path fill="#010202" d="M17.372,88.11v14.461c0,1.773,1.438,3.213,3.213,3.213h34.578c1.774,0,3.213-1.439,3.213-3.213V88.11
	c0-1.773-1.439-3.213-3.213-3.213H20.585C18.81,84.897,17.372,86.337,17.372,88.11z M20.782,96.921V93.76
	c0-0.235,0.191-0.428,0.427-0.428c0.237,0,0.428,0.192,0.428,0.428v3.161c0,0.236-0.19,0.428-0.428,0.428
	C20.973,97.349,20.782,97.157,20.782,96.921z M20.618,98.763c0-0.281,0.229-0.511,0.51-0.511s0.51,0.229,0.51,0.511
	c0,0.282-0.228,0.51-0.51,0.51S20.618,99.045,20.618,98.763z M56.643,95.341c0,1.108-0.898,2.008-2.009,2.008
	c-1.108,0-2.008-0.899-2.008-2.008c0-1.109,0.9-2.009,2.008-2.009C55.745,93.332,56.643,94.231,56.643,95.341z M51.195,86.503
	v17.675H24.552V86.503H51.195z"/>
</svg>
